<?xml version="1.0" standalone="no"?>
<!DOCTYPE svg PUBLIC "-//W3C//DTD SVG 1.1//EN" "http://www.w3.org/Graphics/SVG/1.1/DTD/svg11.dtd" >
<svg xmlns="http://www.w3.org/2000/svg">
<metadata></metadata>
<defs>
<font id="daxbold" horiz-adv-x="1155" >
<font-face units-per-em="2048" ascent="1608" descent="-440" />
<missing-glyph horiz-adv-x="548" />
<glyph horiz-adv-x="0" />
<glyph horiz-adv-x="682" />
<glyph unicode=" "  horiz-adv-x="548" />
<glyph unicode="&#x09;" horiz-adv-x="548" />
<glyph unicode="&#xa0;" horiz-adv-x="548" />
<glyph unicode="!" horiz-adv-x="677" d="M168 1409h381l-68 -903h-243zM176 166q0 75 53.5 127.5t128.5 52.5t129 -52.5t54 -127.5q0 -76 -54 -129t-129 -53t-128.5 53t-53.5 129z" />
<glyph unicode="&#x22;" horiz-adv-x="905" d="M117 1366q50 64 137 64t137 -64l-57 -573h-162zM512 1366q53 64 139 64q87 0 137 -64l-57 -573h-164z" />
<glyph unicode="#" d="M74 438v156h202l46 256h-177v156h203l70 403h176l-70 -403h203l68 403h178l-70 -403h178v-154h-204l-46 -258h179v-154h-205l-74 -440h-178l76 440h-201l-78 -440h-176l76 438h-176zM453 594h200l47 258h-202z" />
<glyph unicode="$" d="M152 63l73 222q105 -64 228 -64q87 0 138.5 48.5t51.5 131.5q0 71 -47 120t-156 95q-129 57 -202.5 151.5t-73.5 227.5q0 160 97 277.5t263 144.5l-22 248h176l-21 -244q164 -11 263 -75l-64 -185q-98 58 -205 58q-79 0 -129.5 -47t-50.5 -123t48.5 -124.5t150.5 -95.5 q157 -74 230 -171.5t73 -235.5q0 -163 -99.5 -279t-265.5 -147l25 -266h-182l22 258q-208 5 -321 75z" />
<glyph unicode="%" horiz-adv-x="1818" d="M117 942q0 59 5.5 112t17.5 110.5t35.5 103.5t57 83.5t83.5 58t112 20.5q74 0 131 -30.5t91 -78t55 -114.5t28.5 -130.5t7.5 -134.5q0 -70 -7.5 -133t-29 -128.5t-55.5 -113t-90.5 -78t-130.5 -30.5t-131 30.5t-90.5 77.5t-54 113.5t-28 129t-7.5 132.5zM322 950 q0 -76 3.5 -129t14 -104.5t32.5 -78t56 -26.5q28 0 48 19t31.5 48.5t18.5 76t9 91t2 103.5q0 76 -4 130.5t-14.5 107t-33.5 79.5t-57 27t-56 -27t-32.5 -80t-14 -106.5t-3.5 -130.5zM590 18l481 1409l156 -38l-482 -1409zM1077 465q0 70 7.5 133.5t29 129.5t55 113.5t91 78 t131.5 30.5t130.5 -30.5t90 -78t54.5 -113.5t28.5 -129.5t7.5 -133.5t-7.5 -133.5t-28.5 -129.5t-54.5 -113.5t-90 -78t-130.5 -30.5t-131.5 30.5t-91 78t-55 113.5t-29 129.5t-7.5 133.5zM1282 473q0 -60 2 -104.5t9 -91.5t18.5 -76.5t31.5 -48.5t48 -19q23 0 40.5 12 t28.5 37t18.5 53.5t11 71t5 79t2.5 87.5q0 76 -3.5 129.5t-14 106t-32.5 79.5t-56 27t-57 -27t-33.5 -79.5t-14.5 -106.5t-4 -129z" />
<glyph unicode="&#x26;" horiz-adv-x="1327" d="M86 393q0 149 87.5 245.5t223.5 143.5v6q-225 90 -225 297q0 153 119 249t315 96q108 0 200 -23t148 -59l-92 -185q-88 45 -186 45q-90 0 -137 -40.5t-47 -112.5q0 -75 58.5 -118.5t149.5 -43.5q213 0 533 158l92 -189q-38 -20 -103 -43t-116 -35v-721q-149 -83 -451 -83 q-269 0 -419 106.5t-150 306.5zM426 414q0 -234 246 -234q75 0 121 19v528q-194 -44 -280.5 -114.5t-86.5 -198.5z" />
<glyph unicode="'" horiz-adv-x="509" d="M117 1366q50 64 139 64q90 0 137 -64l-57 -573h-162z" />
<glyph unicode="(" horiz-adv-x="815" d="M111 586q0 269 120 518.5t390 531.5l149 -84q-326 -455 -326 -966q0 -514 326 -969l-149 -84q-269 282 -389.5 533t-120.5 520z" />
<glyph unicode=")" horiz-adv-x="815" d="M45 -383q328 458 328 969q0 508 -328 966l150 84q270 -282 390 -531.5t120 -518.5t-120.5 -520t-389.5 -533z" />
<glyph unicode="*" horiz-adv-x="944" d="M94 1354q0 49 33 81.5t80 32.5q45 0 78.5 -33t33.5 -81q0 -47 -33.5 -81t-78.5 -34q-46 0 -79.5 34t-33.5 81zM188 1042q0 49 34 83t79 34q46 0 79.5 -34t33.5 -83q0 -47 -33.5 -79.5t-79.5 -32.5q-45 0 -79 33t-34 79zM360 1546q0 47 33.5 81t79.5 34q45 0 79 -34 t34 -81q0 -49 -34 -81.5t-81 -32.5q-45 0 -78 32.5t-33 81.5zM381 1268q0 39 27.5 65.5t64.5 26.5t63.5 -26.5t26.5 -65.5t-26.5 -65.5t-65.5 -26.5q-36 0 -63 26.5t-27 65.5zM528 1042q0 49 34 82t81 33q45 0 78 -33t33 -82t-33 -80.5t-80 -31.5q-45 0 -79 33t-34 79z M625 1354q0 47 34 80.5t80 33.5q45 0 78 -33.5t33 -80.5q0 -49 -33.5 -84t-79.5 -33q-45 0 -78.5 34t-33.5 83z" />
<glyph unicode="+" d="M162 578v204h313v322h205v-322h313v-204h-313v-324h-205v324h-313z" />
<glyph unicode="," horiz-adv-x="620" d="M2 -346l191 590q63 94 188 94q118 0 133 -94l-326 -590h-186z" />
<glyph unicode="-" horiz-adv-x="729" d="M98 569v236h533v-236h-533z" />
<glyph unicode="." horiz-adv-x="575" d="M106 166q0 75 53 128.5t128 53.5t128.5 -53.5t53.5 -128.5t-53.5 -128.5t-128.5 -53.5t-128 53.5t-53 128.5z" />
<glyph unicode="/" horiz-adv-x="1191" d="M16 -379l965 2013l195 -94l-965 -2013z" />
<glyph unicode="0" d="M94 705q0 84 9.5 164t30.5 163.5t58.5 153.5t89 125.5t127.5 87t169 31.5q110 0 196.5 -46t139.5 -118t87 -170.5t47 -193.5t13 -197t-13 -197t-47 -193.5t-87 -170.5t-139.5 -118t-196.5 -46q-93 0 -169 31.5t-127.5 87t-89 125.5t-58.5 153.5t-30.5 163.5t-9.5 164z M399 709q0 -89 4 -158.5t15.5 -140t30.5 -116.5t52 -75t77 -29q37 0 66 19t48 56t32 82.5t20 107.5t9.5 121.5t2.5 132.5q0 112 -7 196.5t-25 163t-54.5 120.5t-91.5 42q-44 0 -77 -29.5t-52 -76.5t-30.5 -117.5t-15.5 -140.5t-4 -158z" />
<glyph unicode="1" d="M152 1198q184 21 304 82t160 129h232v-1409h-326v1073q-46 -23 -138 -42t-194 -25z" />
<glyph unicode="2" d="M59 0l480 694q72 104 97.5 170t25.5 131q0 203 -230 203q-144 0 -252 -55l-76 203q164 84 400 84q106 0 191.5 -23.5t140.5 -61.5t91.5 -90.5t52 -107t15.5 -113.5q0 -88 -44 -183.5t-142 -219.5l-287 -367h482v-264h-945z" />
<glyph unicode="3" d="M66 59l84 217q112 -59 274 -59q115 0 181.5 56t66.5 155q0 54 -20 95t-53 66t-79 40t-92.5 20t-99.5 4v168q150 15 231.5 75t81.5 153q0 76 -53 115.5t-144 39.5q-150 0 -262 -55l-78 201q160 80 394 80q213 0 338 -93.5t125 -251.5q0 -55 -21 -104.5t-56 -85t-71.5 -60 t-75.5 -40.5v-4q281 -99 281 -365q0 -199 -150 -322.5t-389 -123.5q-261 0 -413 79z" />
<glyph unicode="4" d="M98 279v188l547 942h313v-956h107v-174h-107v-279h-301v279h-559zM299 453h358v446q0 50 1.5 102.5t3.5 79.5l2 27l-12 -26q-11 -25 -36.5 -76t-54.5 -101z" />
<glyph unicode="5" d="M82 59l84 217q112 -61 276 -61q108 0 178 57t70 156q0 49 -15.5 89t-52 74.5t-98 52t-152.5 22t-216 -16.5l80 760h737v-264h-514l-25 -299q304 16 452 -99.5t148 -320.5q0 -193 -149.5 -319.5t-388.5 -126.5q-262 0 -414 79z" />
<glyph unicode="6" d="M102 526q0 127 30 241t78.5 200t114 159.5t134.5 123.5t141 88t131.5 57.5t108.5 27.5l82 -211q-61 -16 -119 -41t-124 -67t-124 -109t-96 -151q65 20 135 20q90 0 169.5 -22.5t148.5 -70.5t110 -135t41 -204q0 -201 -128.5 -326.5t-348.5 -125.5q-128 0 -223.5 44 t-151 121.5t-82.5 172.5t-27 208zM397 516q0 -91 17 -162t61.5 -119.5t112.5 -48.5q47 0 82 22t54.5 61t28.5 84t9 98q0 254 -236 254q-56 0 -114 -23q-15 -66 -15 -166z" />
<glyph unicode="7" d="M109 1145v264h991l-176 -432q-267 -655 -336 -977h-389l514 1145h-604z" />
<glyph unicode="8" d="M94 352q0 120 67 206t216 173q-126 78 -184 158.5t-58 185.5q0 158 125 256.5t318 98.5q192 0 317 -97.5t125 -255.5q0 -105 -57 -182t-185 -152q146 -91 214.5 -181.5t68.5 -207.5q0 -169 -134 -271.5t-349 -102.5q-137 0 -245 41.5t-173.5 127.5t-65.5 203zM371 360 q0 -77 58.5 -130.5t143.5 -53.5q86 0 140.5 51t54.5 129q0 81 -38.5 137.5t-158.5 129.5q-121 -69 -160.5 -126.5t-39.5 -136.5zM406 1083q0 -72 37 -119.5t143 -115.5q103 64 140.5 113.5t37.5 119.5q0 74 -51 122t-129 48q-79 0 -128.5 -47.5t-49.5 -120.5z" />
<glyph unicode="9" d="M92 973q0 199 131.5 324.5t351.5 125.5q127 0 222 -44t149.5 -121.5t80.5 -172.5t26 -208q0 -127 -30 -241t-78.5 -200t-114 -159.5t-134.5 -123.5t-141 -88t-131.5 -57.5t-108.5 -27.5l-82 210q60 16 118.5 41.5t124.5 67.5t124 109t96 151q-65 -20 -135 -20 q-71 0 -135.5 13.5t-126.5 45.5t-107 80.5t-72.5 124t-27.5 170.5zM389 965q0 -254 236 -254q49 0 116 20q15 77 15 168q0 90 -17.5 160.5t-62.5 119t-113 48.5q-47 0 -81.5 -22t-54 -59.5t-29 -83t-9.5 -97.5z" />
<glyph unicode=":" horiz-adv-x="575" d="M106 166q0 75 53 128.5t128 53.5t128.5 -53.5t53.5 -128.5t-53.5 -128.5t-128.5 -53.5t-128 53.5t-53 128.5zM106 811q0 75 53 128.5t128 53.5t128.5 -53.5t53.5 -128.5t-53.5 -128.5t-128.5 -53.5t-128 53.5t-53 128.5z" />
<glyph unicode=";" horiz-adv-x="620" d="M2 -346l191 590q65 96 186 96q62 0 95 -26.5t40 -69.5l-326 -590h-186zM150 811q0 75 53.5 128.5t128.5 53.5t128.5 -53.5t53.5 -128.5t-53.5 -128.5t-128.5 -53.5t-128.5 53.5t-53.5 128.5z" />
<glyph unicode="&#x3c;" d="M162 588v188l831 348v-223l-579 -219l579 -221v-221z" />
<glyph unicode="=" d="M162 362v205h831v-205h-831zM162 791v204h831v-204h-831z" />
<glyph unicode="&#x3e;" d="M162 240v221l579 221l-579 219v223l831 -348v-188z" />
<glyph unicode="?" horiz-adv-x="921" d="M74 1348q151 79 352 79q219 0 345 -94.5t126 -255.5q0 -69 -29.5 -129t-78 -101.5t-97 -68.5t-98.5 -43l-21 -229h-241l-33 321q113 23 187.5 80t74.5 137q0 73 -49.5 118.5t-151.5 45.5q-99 0 -204 -51zM270 166q0 75 54 128.5t129 53.5t128.5 -53.5t53.5 -128.5 t-53.5 -128.5t-128.5 -53.5t-129 53.5t-54 128.5z" />
<glyph unicode="@" horiz-adv-x="1777" d="M102 467q0 192 74 369t200 308t303.5 209.5t373.5 78.5q274 0 444 -158.5t170 -425.5q0 -86 -19 -182t-59 -190.5t-95 -170.5t-135 -123t-171 -47q-75 0 -112.5 39.5t-51.5 128.5q-123 -166 -299 -166q-67 0 -119.5 27.5t-83.5 74t-47 104.5t-16 124q0 89 29.5 186 t82.5 182.5t138.5 141t185.5 55.5q80 0 134 -39.5t95 -115.5l27 118h147l-88 -395q-36 -162 -36 -229q0 -58 13 -83.5t48 -25.5q61 0 118.5 60t96 149t61.5 189.5t23 183.5q0 224 -137.5 354.5t-358.5 130.5q-170 0 -321 -74t-255 -195t-164 -277.5t-60 -319.5 q0 -194 85 -335t231 -211.5t335 -70.5q119 0 221 22t185.5 65.5t148.5 94t133 119.5l70 -88q-152 -159 -331.5 -240t-430.5 -81q-172 0 -316 49t-247.5 140.5t-161.5 230t-58 309.5zM621 469q0 -91 45 -147t116 -56q54 0 101.5 31t80.5 79t57 106t35.5 113.5t12.5 100.5 q1 93 -44.5 151t-119.5 58q-68 0 -125 -46.5t-90 -116t-51 -141.5t-18 -132z" />
<glyph unicode="A" horiz-adv-x="1255" d="M8 0l459 1409h324l456 -1409h-342l-86 301h-424l-90 -301h-297zM444 492h330l-125 458q-12 44 -20.5 86.5t-10.5 63.5l-2 20h-4q-8 -70 -37 -170z" />
<glyph unicode="B" horiz-adv-x="1228" d="M133 61v1287q157 82 434 82q267 0 405 -104t138 -271q0 -66 -23 -122t-61 -93t-80.5 -61t-87.5 -36v-4q50 -13 99.5 -42t94 -71.5t72 -104.5t27.5 -132q0 -206 -148.5 -307.5t-418.5 -101.5q-292 0 -451 81zM449 199q58 -21 126 -21q120 0 182 52.5t62 170.5 q0 130 -69.5 190t-235.5 60h-65v-452zM449 811h65q154 0 216.5 51.5t62.5 169.5q0 107 -55 159t-169 52q-71 0 -120 -16v-416z" />
<glyph unicode="C" horiz-adv-x="1005" d="M90 705q0 114 21 219.5t66 198t109.5 160.5t157 107.5t203.5 39.5q192 0 305 -82l-67 -201q-67 43 -166 43q-63 0 -113 -27.5t-82 -72.5t-53 -108.5t-30 -131t-9 -143.5q0 -94 16 -176t49 -150.5t89.5 -108t130.5 -39.5q55 0 90 10.5t72 32.5l75 -213q-109 -83 -309 -83 q-111 0 -203.5 39t-157 106.5t-108.5 160t-65 198t-21 221.5z" />
<glyph unicode="D" horiz-adv-x="1265" d="M133 61v1287q171 82 408 82q135 0 242 -35.5t180 -99t121.5 -154.5t70 -197.5t21.5 -232.5q0 -125 -20.5 -232t-67 -200.5t-117 -158.5t-176 -102.5t-238.5 -37.5q-268 0 -424 81zM461 223q44 -14 98 -14q153 0 217 115.5t64 392.5q0 262 -66.5 378.5t-218.5 116.5 q-56 0 -94 -14v-975z" />
<glyph unicode="E" horiz-adv-x="940" d="M133 0v1409h721v-223h-387v-359h338v-217h-338v-387h387v-223h-721z" />
<glyph unicode="F" horiz-adv-x="927" d="M133 0v1409h719v-223h-385v-359h336v-217h-336v-610h-334z" />
<glyph unicode="G" horiz-adv-x="1249" d="M90 711q0 214 77 376t224.5 252.5t347.5 90.5q228 0 373 -82l-96 -205q-85 51 -238 51q-352 0 -352 -492q0 -242 76 -367.5t209 -125.5q68 0 104 20v400h-168v198h479v-766q-72 -41 -164.5 -61t-232.5 -20q-315 0 -477 192.5t-162 538.5z" />
<glyph unicode="H" horiz-adv-x="1290" d="M133 0v1409h334v-582h356v582h334v-1409h-334v610h-356v-610h-334z" />
<glyph unicode="I" horiz-adv-x="606" d="M137 0v1409h332v-1409h-332z" />
<glyph unicode="J" horiz-adv-x="606" d="M-76 -221q93 16 153 89t60 193v1348h332v-1315q0 -128 -41 -230t-115 -168.5t-172.5 -103.5t-216.5 -43v230z" />
<glyph unicode="K" horiz-adv-x="1210" d="M137 0v1409h330v-635h4l354 635h340l-399 -647l426 -762h-373l-348 698h-4v-698h-330z" />
<glyph unicode="L" horiz-adv-x="888" d="M137 0v1409h332v-1186h358v-223h-690z" />
<glyph unicode="M" horiz-adv-x="1636" d="M80 0l149 1409h324l219 -788q11 -38 20.5 -77.5t13.5 -59.5l3 -21h4q14 72 39 158l231 788h322l151 -1409h-315l-70 811q-2 25 -3.5 51.5t-2 47t-0.5 38v26.5v9h-4q-16 -82 -43 -172q-212 -739 -237 -811h-166q-10 26 -69.5 229t-113.5 393l-55 189q-12 40 -23 83t-16 66 l-4 23h-4q1 -27 1 -56q0 -56 -5 -116q-68 -750 -72 -811h-274z" />
<glyph unicode="N" horiz-adv-x="1339" d="M133 0v1409h293l432 -723q19 -32 37 -65.5t27 -51.5l8 -18h4q-8 67 -8 141v717h280v-1409h-256l-469 791q-19 33 -37.5 69.5t-27.5 57.5l-8 20h-5q9 -76 9 -154v-784h-279z" />
<glyph unicode="O" horiz-adv-x="1282" d="M90 705q0 122 19.5 228t62 198.5t105.5 158t156 103t208 37.5t208 -37.5t156 -103t105.5 -158t62 -198.5t19.5 -228q0 -154 -31.5 -282.5t-96 -229t-172.5 -157t-251 -56.5t-251 56.5t-172.5 157t-96 229t-31.5 282.5zM428 717q0 -101 8.5 -181t30 -155t66 -116.5 t108.5 -41.5q53 0 92 29t62 74.5t36.5 113t18 132.5t4.5 145q0 493 -213 493t-213 -493z" />
<glyph unicode="P" horiz-adv-x="1173" d="M133 0v1348q167 82 428 82q142 0 249 -34.5t170 -97t93.5 -142.5t30.5 -177q0 -102 -35 -188t-105 -151.5t-188 -96.5q-82 -21 -180 -21q-44 0 -92 4l-45 4v-530h-326zM459 721l45 -2q15 -1 30 0q130 1 188 57q66 64 66 205q0 135 -52.5 197.5t-176.5 62.5 q-64 0 -100 -16v-504z" />
<glyph unicode="Q" horiz-adv-x="1282" d="M90 707q0 121 19 227t62 198t106 157.5t156 103t208 37.5q116 0 209 -37.5t156 -103t105.5 -157.5t61.5 -198t19 -227q0 -211 -60.5 -376t-187.5 -259l221 -271l-241 -213l-183 406q-46 -10 -100 -10q-143 0 -251 56.5t-172.5 157t-96 228.5t-31.5 281zM428 719 q0 -80 4.5 -144.5t18.5 -132t36.5 -113.5t61.5 -75t92 -29t92 29t61.5 75t36.5 113.5t18.5 132t4.5 144.5q0 65 -3.5 120t-11.5 113.5t-24 102.5t-38.5 80.5t-57 55.5t-78.5 19t-78.5 -19t-57 -55.5t-38.5 -80.5t-24 -102.5t-11.5 -113.5t-3.5 -120z" />
<glyph unicode="R" horiz-adv-x="1210" d="M135 0v1348q171 82 424 82q278 0 417.5 -117t139.5 -324q0 -136 -92.5 -236t-232.5 -122v-4l374 -627h-364l-334 623h-4v-623h-328zM463 707q27 -9 72 -9q127 0 191.5 72.5t64.5 202.5q0 140 -52 204t-180 64q-51 0 -96 -18v-516z" />
<glyph unicode="S" horiz-adv-x="991" d="M63 63l76 232q39 -27 99.5 -46.5t128.5 -19.5q87 0 137.5 46t50.5 122q0 67 -44.5 114.5t-152.5 94.5q-280 125 -280 389q0 184 123 309.5t323 125.5q206 0 330 -82l-70 -203q-96 61 -211 61q-82 0 -126 -43t-44 -119q0 -72 46.5 -117t144.5 -89q79 -36 136.5 -77.5 t90.5 -80.5t52.5 -85.5t25.5 -85.5t6 -87q0 -192 -132.5 -317t-340.5 -125q-244 0 -369 83z" />
<glyph unicode="T" horiz-adv-x="952" d="M63 1186v223h824v-223h-244v-1186h-334v1186h-246z" />
<glyph unicode="U" horiz-adv-x="1245" d="M133 416v993h334v-991q0 -91 47.5 -140t122.5 -49t121.5 49.5t46.5 141.5v989h307v-993q0 -199 -137 -319t-352 -120q-214 0 -352 120t-138 319z" />
<glyph unicode="V" horiz-adv-x="1163" d="M14 1409h353l196 -819q8 -34 16.5 -77t12.5 -69l4 -26h2q15 96 33 172l203 819h319l-424 -1409h-289z" />
<glyph unicode="W" horiz-adv-x="1720" d="M43 1409h328l147 -823q6 -36 11.5 -76t7.5 -62l2 -22h4q8 80 26 160l187 823h237l183 -823q7 -35 13 -75t9 -63l2 -22h4q7 82 21 160l153 823h301l-315 -1409h-293l-182 741q-8 34 -14.5 71.5t-9.5 57.5l-3 21h-4q-6 -72 -24 -150l-179 -741h-295z" />
<glyph unicode="X" horiz-adv-x="1142" d="M14 0l375 719l-338 690h355l169 -422h5l198 422h318l-351 -651l383 -758h-370l-197 459h-4l-203 -459h-340z" />
<glyph unicode="Y" horiz-adv-x="1087" d="M4 1409h348l203 -532h4l213 532h313l-376 -817v-592h-332v592z" />
<glyph unicode="Z" horiz-adv-x="966" d="M35 0l440 1186h-393v223h805l-424 -1186h432v-223h-860z" />
<glyph unicode="[" horiz-adv-x="749" d="M131 -440v2048h543v-181h-262v-1685h262v-182h-543z" />
<glyph unicode="\" horiz-adv-x="1196" d="M16 1538l197 96l967 -2013l-197 -96z" />
<glyph unicode="]" horiz-adv-x="749" d="M76 -258h262v1685h-262v181h542v-2048h-542v182z" />
<glyph unicode="^" horiz-adv-x="1255" d="M166 928l328 432q52 67 135 67q81 0 133 -67l328 -432l-127 -123l-334 373l-336 -373z" />
<glyph unicode="_" d="M-20 -258h1196v-195h-1196v195z" />
<glyph unicode="`" horiz-adv-x="507" d="M-10 1503q21 51 125 51.5t174 -43.5l139 -294h-174z" />
<glyph unicode="a" horiz-adv-x="1105" d="M70 328q0 83 33 148t87.5 107t136.5 72t166.5 46t192.5 26v51q0 82 -49.5 115t-144.5 33q-139 0 -287 -68l-70 182q199 84 416 84q97 0 173.5 -21.5t136.5 -67.5t92 -125.5t32 -188.5v-660q-152 -81 -432 -81q-239 0 -361 88t-122 260zM369 340q0 -184 200 -184 q71 0 117 22v402q-78 -7 -132 -20.5t-98 -40t-65.5 -71t-21.5 -108.5z" />
<glyph unicode="b" horiz-adv-x="1167" d="M121 61v1547h319v-531q84 41 205 41q197 0 318.5 -145.5t121.5 -388.5q0 -290 -146.5 -447t-418.5 -157q-271 0 -399 81zM440 188q40 -16 99 -16q231 0 231 391q0 86 -10 150t-33.5 116.5t-66.5 79.5t-105 27q-67 0 -115 -25v-723z" />
<glyph unicode="c" horiz-adv-x="860" d="M82 555q0 136 36 245.5t98.5 179.5t144 107t174.5 37q174 0 270 -80l-66 -176q-54 43 -131 43q-205 0 -205 -352q0 -167 53.5 -259.5t149.5 -92.5q82 0 133 45l68 -193q-83 -79 -270 -79q-202 0 -328.5 152t-126.5 423z" />
<glyph unicode="d" horiz-adv-x="1167" d="M82 545q0 262 134 416.5t351 154.5q88 0 162 -18v510h318v-1547q-153 -81 -422 -81q-254 0 -398.5 146t-144.5 419zM397 559q0 -377 234 -377q65 0 98 17v727q-41 12 -88 12q-244 0 -244 -379z" />
<glyph unicode="e" horiz-adv-x="1128" d="M82 555q0 262 131.5 415.5t366.5 153.5q238 0 358 -154q110 -141 110 -389q0 -23 -1 -46l-662 -95q17 -123 81.5 -182t184.5 -59q175 0 287 59l72 -199q-158 -79 -396 -79q-251 0 -391.5 154.5t-140.5 420.5zM365 596l385 57q0 283 -183 283q-101 0 -155 -87 q-48 -77 -48 -216q0 -18 1 -37z" />
<glyph unicode="f" horiz-adv-x="722" d="M66 897v207h120v113q0 206 132 310q107 84 274 84q40 0 84 -5v-203h-13q-74 0 -114 -33q-43 -36 -43 -127v-139h170v-207h-170v-897h-320v897h-120z" />
<glyph unicode="g" horiz-adv-x="1161" d="M82 524q0 283 144 441.5t423 158.5q123 0 226.5 -22.5t164.5 -59.5v-1050q0 -227 -131 -342t-352 -115q-125 0 -235 22.5t-177 59.5l82 207q121 -66 273 -66q121 0 175 53.5t54 153.5v62q-65 -35 -192 -35q-201 0 -328 144t-127 388zM397 543q0 -190 53.5 -279.5 t172.5 -89.5q60 0 106 27v721q-37 18 -100 18q-121 0 -176.5 -98t-55.5 -299z" />
<glyph unicode="h" horiz-adv-x="1179" d="M121 0v1608h319v-541q114 51 238 51q100 0 175.5 -27.5t119 -76t65 -108.5t21.5 -132v-774h-320v768q0 156 -164 156q-77 0 -135 -31v-893h-319z" />
<glyph unicode="i" horiz-adv-x="573" d="M117 1421q0 62 50 106t120 44t120 -44t50 -106q0 -63 -49.5 -106t-120.5 -43t-120.5 43t-49.5 106zM127 0v1104h319v-1104h-319z" />
<glyph unicode="j" horiz-adv-x="575" d="M-53 -250q95 31 138.5 103.5t43.5 230.5v1020h320v-981q0 -263 -140 -419t-362 -165v211zM119 1421q0 62 50 106t120 44t120 -44.5t50 -107.5q0 -61 -49.5 -104t-120.5 -43t-120.5 43t-49.5 106z" />
<glyph unicode="k" horiz-adv-x="1120" d="M127 0v1608h317v-992h5l309 488h319l-346 -496l393 -608h-358l-317 557h-5v-557h-317z" />
<glyph unicode="l" horiz-adv-x="573" d="M127 0v1608h319v-1608h-319z" />
<glyph unicode="m" horiz-adv-x="1800" d="M121 0v1042q183 82 446 82q237 0 351 -110q131 110 364 110q189 0 293 -98.5t104 -251.5v-774h-319v774q0 67 -40 108.5t-120 41.5q-85 0 -139 -54v-870h-320v778q0 67 -45 106.5t-127 39.5q-71 0 -129 -21v-903h-319z" />
<glyph unicode="n" horiz-adv-x="1179" d="M121 0v1042q186 82 463 82q249 0 362 -94t113 -256v-774h-320v772q0 67 -37.5 110.5t-126.5 43.5q-64 0 -135 -23v-903h-319z" />
<glyph unicode="o" horiz-adv-x="1138" d="M82 553q0 167 54 294.5t165 202t266 74.5q157 0 269 -74.5t166.5 -202t54.5 -294.5t-54.5 -295t-166 -203t-267.5 -75q-232 0 -359.5 158.5t-127.5 414.5zM399 557q0 -81 7.5 -141.5t25.5 -112t52.5 -79t84.5 -27.5q51 0 85.5 27t52.5 79.5t25 112.5t7 141t-7 142 t-24.5 115t-52.5 83t-86 29t-86 -29t-52.5 -83t-24.5 -115t-7 -142z" />
<glyph unicode="p" horiz-adv-x="1167" d="M121 -440v1482q164 82 422 82q252 0 397 -146t145 -419q0 -263 -133.5 -418t-351.5 -155q-101 0 -160 18v-444h-319zM440 188q35 -14 84 -14q246 0 246 381q0 192 -53.5 286.5t-177.5 94.5q-56 0 -99 -16v-732z" />
<glyph unicode="q" horiz-adv-x="1167" d="M82 518q0 132 32 239.5t98 191t177 129.5t260 46q252 0 398 -82v-1482h-318v465q-80 -41 -199 -41q-199 0 -323.5 145.5t-124.5 388.5zM397 545q0 -184 53 -276.5t166 -92.5q65 0 113 25v721q-37 18 -100 18q-232 0 -232 -395z" />
<glyph unicode="r" horiz-adv-x="735" d="M121 0v1042q169 81 473 81q57 0 119 -3l-60 -225q-57 24 -116 25h-6q-55 0 -91 -19v-901h-319z" />
<glyph unicode="s" horiz-adv-x="874" d="M55 61l82 203q33 -27 86.5 -45t110.5 -18q61 0 99 34t38 87q0 55 -32 89.5t-109 65.5q-73 29 -123.5 65t-77 76.5t-37 79.5t-10.5 86q0 144 103 242t266 98q187 0 317 -80l-78 -182q-71 58 -168 58q-61 0 -94 -32.5t-33 -82.5q0 -52 35.5 -87t106.5 -65q150 -63 206 -140 t56 -183q0 -149 -114.5 -248.5t-305.5 -99.5q-98 0 -184.5 22t-139.5 57z" />
<glyph unicode="t" horiz-adv-x="745" d="M66 897v207h120v235l320 82v-317h170v-207h-170v-569q0 -129 102 -129q28 0 68 12v-197q-68 -30 -158 -30q-164 0 -248 91t-84 228v594h-120z" />
<glyph unicode="u" horiz-adv-x="1165" d="M121 362v742h319v-764q0 -65 37.5 -105t114.5 -40q82 0 133 26v883h319v-1038q-172 -86 -460 -86q-235 0 -349 92t-114 290z" />
<glyph unicode="v" horiz-adv-x="1069" d="M29 1104h338l157 -635q9 -38 15 -80t8 -65l2 -23h4q6 80 29 168l161 635h299l-350 -1104h-309z" />
<glyph unicode="w" horiz-adv-x="1646" d="M43 1104h317l134 -637q8 -40 13 -80t6 -60l1 -20h4q2 68 27 160l168 637h262l158 -637q8 -35 14.5 -75t8.5 -62l3 -23h4q3 82 21 162l141 635h281l-303 -1104h-295l-158 598q-8 33 -14 71t-8 59l-1 22h-2q-4 -78 -24 -152l-162 -598h-293z" />
<glyph unicode="x" horiz-adv-x="1062" d="M14 0l346 569l-311 535h336l160 -320h4l170 320h297l-318 -512l351 -592h-353l-174 352l-4 2l-180 -354h-324z" />
<glyph unicode="y" horiz-adv-x="1069" d="M29 1104h338l151 -639q10 -42 16 -85.5t6 -65.5l1 -23h4q5 80 30 174l168 639h299l-495 -1544h-336l176 440z" />
<glyph unicode="z" horiz-adv-x="899" d="M51 0l375 897h-338v207h733l-356 -897h364v-207h-778z" />
<glyph unicode="{" horiz-adv-x="829" d="M74 600v164q82 2 130 44t48 146v289q0 84 27.5 149t72.5 105.5t109.5 66t131 35t144.5 9.5v-160q-112 0 -161.5 -44t-49.5 -142v-334q0 -106 -52 -167t-142 -79v-4q89 -16 141.5 -79t52.5 -173v-336q0 -98 49.5 -142t161.5 -44v-160q-78 0 -144.5 9.5t-131 35t-109.5 66 t-72.5 105.5t-27.5 149v290q0 109 -48.5 153.5t-129.5 47.5z" />
<glyph unicode="|" horiz-adv-x="509" d="M131 -440v2048h248v-2048h-248z" />
<glyph unicode="}" horiz-adv-x="829" d="M92 -96q111 0 161 44t50 142v336q0 110 52.5 173t142.5 79q-2 4 0 4q-91 18 -143 79t-52 167v334q0 98 -50 142t-161 44v160q78 0 144.5 -9.5t130.5 -35t108.5 -66t72 -105.5t27.5 -149v-289q0 -104 49.5 -146t131.5 -44v-164q-83 -3 -132 -47.5t-49 -153.5v-290 q0 -84 -27.5 -149t-72 -105.5t-108.5 -66t-130.5 -35t-144.5 -9.5v160z" />
<glyph unicode="~" horiz-adv-x="1255" d="M152 733q37 79 91.5 124.5t143.5 53.5q50 4 98.5 -8.5t88 -33.5t78 -42.5t81.5 -34t84 -8.5q139 13 195 146l92 -201q-52 -147 -240 -168q-48 -5 -96 7.5t-88.5 33.5t-80 42t-84 33.5t-87.5 8.5q-129 -13 -188 -151z" />
<glyph unicode="&#xa1;" horiz-adv-x="677" d="M168 -440l68 903h243l70 -903h-381zM176 803q0 75 53.5 128.5t128.5 53.5t129 -53.5t54 -128.5t-54 -128.5t-129 -53.5t-128.5 53.5t-53.5 128.5z" />
<glyph unicode="&#xa2;" d="M172 713q0 199 94.5 324t249.5 155l-20 217h186l-18 -209q135 -8 210 -63l-61 -156q-58 35 -129 35q-101 0 -153 -79t-52 -220q0 -147 53 -224t152 -77q76 0 129 37l64 -172q-70 -56 -218 -64l23 -217h-193l25 225q-160 32 -251 156.5t-91 331.5z" />
<glyph unicode="&#xa3;" d="M121 645v184h149q-32 122 -32 224q0 73 27.5 139.5t80 120t139 85.5t195.5 32q119 0 211.5 -23.5t144.5 -56.5l-69 -195q-83 49 -207 49q-112 0 -165.5 -61t-53.5 -170q0 -68 20 -144h279v-184h-250q12 -56 12 -137q0 -63 -24.5 -136.5t-47.5 -107.5h523v-264h-930 q221 248 221 487q0 72 -22 158h-201z" />
<glyph unicode="&#xa4;" d="M92 322l141 141q-75 109 -75 239q0 131 75 240l-141 141l105 105l141 -141q104 75 240 75q135 0 239 -75l141 141l105 -105l-141 -141q75 -104 75 -240q0 -135 -75 -239l141 -141l-105 -105l-141 141q-109 -75 -239 -75q-131 0 -240 75l-141 -141zM354 702 q0 -92 66 -157.5t158 -65.5q93 0 158 65t65 158q0 94 -65 160t-158 66q-92 0 -158 -66t-66 -160z" />
<glyph unicode="&#xa5;" d="M51 1409h326l211 -547h4l221 547h291l-242 -512l201 14v-135l-248 17l-80 -168l328 14v-135l-334 16v-520h-303v520l-336 -16v135l330 -14l-80 168l-250 -17v135l203 -14z" />
<glyph unicode="&#xa6;" horiz-adv-x="509" d="M131 377h248v-817h-248v817zM131 791v817h248v-817h-248z" />
<glyph unicode="&#xa7;" d="M133 551q0 204 223 342q-53 55 -77.5 108t-24.5 125q0 123 97 210t257 87q192 0 310 -77l-68 -168q-78 53 -178 53q-62 0 -97.5 -30.5t-35.5 -82.5q0 -43 21 -78.5t83 -87.5l201 -170q99 -85 139.5 -159t40.5 -172q0 -192 -231 -336q68 -64 95 -126t27 -136 q0 -130 -104.5 -219t-271.5 -89q-198 0 -326 82l72 189q90 -64 194 -64q64 0 105 30.5t41 80.5q0 40 -16.5 72.5t-67.5 74.5l-226 189q-101 85 -141.5 164.5t-40.5 187.5zM362 596q0 -59 23.5 -104t77.5 -91l190 -159q121 78 121 178q0 57 -21 100t-77 92l-195 166 q-119 -76 -119 -182z" />
<glyph unicode="&#xa8;" horiz-adv-x="507" d="M-86 1356q0 52 41 88.5t98 36.5q58 0 100 -36.5t42 -88.5t-42 -87.5t-100 -35.5t-98.5 35.5t-40.5 87.5zM311 1356q0 52 41.5 88.5t100.5 36.5q58 0 99.5 -36.5t41.5 -88.5t-41.5 -87.5t-99.5 -35.5q-59 0 -100.5 35.5t-41.5 87.5z" />
<glyph unicode="&#xa9;" horiz-adv-x="1642" d="M94 705q0 197 98 364t265.5 264t363.5 97t363.5 -97t265.5 -264t98 -364q0 -148 -58 -283t-155.5 -232.5t-232 -155t-281.5 -57.5t-281.5 57.5t-232 155t-155.5 232.5t-58 283zM221 705q0 -122 47 -233.5t127 -192.5t191.5 -129t234.5 -48q124 0 235.5 48t191 129 t126.5 192t47 234q0 122 -47 233t-126.5 192t-191 129t-235.5 48q-123 0 -234.5 -48t-191.5 -129t-127 -192t-47 -233zM399 709q0 177 125.5 302.5t302.5 125.5q189 0 324 -152l-102 -86q-98 105 -222 105q-120 0 -205 -86.5t-85 -208.5t85 -208.5t205 -86.5q129 0 222 104 l106 -86q-139 -151 -328 -151q-177 0 -302.5 125t-125.5 303z" />
<glyph unicode="&#xaa;" horiz-adv-x="776" d="M74 915q0 56 22 99t57.5 69.5t90.5 45t108.5 27.5t124.5 15v29q0 48 -30 69t-91 21q-96 0 -188 -43l-47 123q127 53 274 53q287 0 287 -258v-420q-104 -53 -285 -53q-159 0 -241 57t-82 166zM272 922q0 -59 33.5 -84t97.5 -25q50 0 74 12v244q-50 -6 -84 -14.5 t-63.5 -24.5t-43.5 -42.5t-14 -65.5z" />
<glyph unicode="&#xab;" horiz-adv-x="1120" d="M82 684l305 485l172 -102l-240 -383l240 -383l-172 -100zM526 684l305 485l175 -102l-242 -383l242 -383l-175 -100z" />
<glyph unicode="&#xac;" d="M162 580v204h831v-512h-213v308h-618z" />
<glyph unicode="&#xad;" horiz-adv-x="729" d="M98 569v236h533v-236h-533z" />
<glyph unicode="&#xae;" horiz-adv-x="1642" d="M94 705q0 197 98 364t265.5 264t363.5 97t363.5 -97t265.5 -264t98 -364q0 -148 -58 -283t-155.5 -232.5t-232 -155t-281.5 -57.5t-281.5 57.5t-232 155t-155.5 232.5t-58 283zM221 705q0 -122 47 -233.5t127 -192.5t191.5 -129t234.5 -48q124 0 235.5 48t191 129 t126.5 192t47 234q0 122 -47 233.5t-126.5 192.5t-191 129.5t-235.5 48.5q-123 0 -234.5 -48.5t-191.5 -129.5t-127 -192.5t-47 -233.5zM575 299v803q86 47 216 47q141 0 220 -69.5t79 -174.5q0 -96 -59 -156.5t-157 -78.5l263 -371h-168l-240 358h-18v-358h-136zM711 750 h51q92 0 140 34.5t48 118.5q0 133 -170 133q-39 0 -69 -10v-276z" />
<glyph unicode="&#xaf;" horiz-adv-x="507" d="M-80 1278v166h668v-166h-668z" />
<glyph unicode="&#xb0;" horiz-adv-x="849" d="M102 1112q0 133 95 227.5t229 94.5t228 -94t94 -228t-94.5 -229t-227.5 -95q-134 0 -229 95t-95 229zM252 1112q0 -72 51 -123t123 -51q71 0 121.5 51t50.5 123t-50.5 122t-121.5 50q-72 0 -123 -50t-51 -122z" />
<glyph unicode="&#xb1;" d="M162 137v189h831v-189h-831zM162 741v187h313v305h205v-305h313v-187h-313v-307h-205v307h-313z" />
<glyph unicode="&#xb2;" horiz-adv-x="786" d="M70 535l303 436q44 65 58.5 98t14.5 72q0 51 -34.5 82.5t-104.5 31.5q-72 0 -145 -30l-53 143q101 53 251 53q68 0 122.5 -14.5t89.5 -38.5t58 -57t32.5 -68t9.5 -74q0 -55 -27.5 -113.5t-89.5 -135.5l-160 -203h289v-182h-614z" />
<glyph unicode="&#xb3;" horiz-adv-x="786" d="M82 578l57 153q73 -39 172 -39q69 0 104.5 30.5t35.5 82.5q0 131 -207 127v123q94 9 141 42t47 81q0 41 -32 64.5t-89 23.5q-80 0 -147 -33l-55 137q106 53 249 53q133 0 212 -58.5t79 -160.5q0 -110 -121 -176q156 -63 156 -221q0 -127 -94.5 -205t-243.5 -78 q-159 0 -264 54z" />
<glyph unicode="&#xb4;" horiz-adv-x="507" d="M80 1217l139 294q70 44 174 43.5t125 -51.5l-264 -286h-174z" />
<glyph unicode="&#xb5;" horiz-adv-x="1179" d="M121 -440v1544h319v-893q72 -35 148 -35q95 0 151 29v899h320v-1036q-83 -45 -168.5 -65.5t-204.5 -20.5q-133 0 -246 53v-475h-319z" />
<glyph unicode="&#xb6;" d="M47 997q0 107 39.5 188t110.5 129t160 71.5t196 23.5h522v-141h-69v-1708h-195v1708h-213v-1708h-197v1048q-162 27 -258 130t-96 259z" />
<glyph unicode="&#xb7;" horiz-adv-x="577" d="M106 705q0 75 54 128.5t129 53.5t128.5 -53.5t53.5 -128.5t-53.5 -129t-128.5 -54t-129 54t-54 129z" />
<glyph unicode="&#xb8;" horiz-adv-x="507" d="M-33 -420l56 101q137 -13 225 5.5t88 57.5q0 37 -54 48.5t-190 2.5l53 88q113 9 189 5t122 -24t65.5 -48.5t19.5 -69.5q0 -103 -154 -147t-420 -19z" />
<glyph unicode="&#xb9;" horiz-adv-x="786" d="M127 1278q116 14 188.5 50.5t100.5 80.5h157v-874h-221v645q-91 -26 -198 -31z" />
<glyph unicode="&#xba;" horiz-adv-x="776" d="M61 1061q0 162 86 263t240 101q157 0 242.5 -101t85.5 -263t-85.5 -264.5t-240.5 -102.5q-156 0 -242 102t-86 265zM276 1065q0 -108 24.5 -166.5t88.5 -58.5q33 0 56 16.5t34.5 48.5t16 69.5t4.5 88.5q0 53 -4.5 91t-16 71t-34.5 50t-56 17q-65 0 -89 -59.5t-24 -167.5z " />
<glyph unicode="&#xbb;" horiz-adv-x="1120" d="M115 301l241 383l-241 383l174 102l305 -485l-305 -483zM561 301l240 383l-240 383l174 102l303 -485l-303 -483z" />
<glyph unicode="&#xbc;" horiz-adv-x="1740" d="M70 1278q112 14 187 51t103 80h158v-874h-219v645q-94 -26 -203 -31zM457 16l637 1448l170 -69l-637 -1450zM1008 168v131l338 575h210v-581h66v-125h-66v-168h-210v168h-338zM1137 293h209v244l2 131q-1 0 -10 -18.5t-26 -51.5t-32 -59z" />
<glyph unicode="&#xbd;" horiz-adv-x="1740" d="M70 1278q112 14 187 51t103 80h158v-874h-219v645q-94 -26 -203 -31zM424 16l637 1448l170 -69l-637 -1450zM1008 0l305 430q43 62 57 99t14 77q0 115 -139 115q-55 0 -127 -31l-55 144q104 53 235 53q68 0 122.5 -15t89.5 -39.5t58 -58t32.5 -68.5t9.5 -73 q0 -112 -115 -252l-162 -199h289v-182h-614z" />
<glyph unicode="&#xbe;" horiz-adv-x="1740" d="M80 578l59 153q70 -39 172 -39q69 0 104.5 30.5t35.5 82.5q0 131 -209 127v123q95 9 142.5 42t47.5 81q0 41 -32 64.5t-89 23.5q-80 0 -147 -33l-55 137q101 53 249 53q133 0 212 -58.5t79 -160.5q0 -110 -121 -176q156 -63 156 -221q0 -127 -94.5 -205t-243.5 -78 q-161 0 -266 54zM518 16l637 1448l170 -69l-637 -1450zM1018 168v131l338 575h211v-581h65v-125h-65v-168h-211v168h-338zM1147 293h209v244l4 131h-4q-29 -66 -66 -129z" />
<glyph unicode="&#xbf;" horiz-adv-x="921" d="M74 -106q0 69 29.5 129t78 101.5t97 68.5t98.5 43l20 229h242l33 -322q-113 -23 -187.5 -80t-74.5 -137q0 -73 49 -118.5t151 -45.5q98 0 205 52l82 -191q-153 -80 -352 -80q-218 0 -344.5 95t-126.5 256zM336 805q0 75 53.5 128.5t128.5 53.5t128.5 -53.5t53.5 -128.5 t-53.5 -128.5t-128.5 -53.5t-128.5 53.5t-53.5 128.5z" />
<glyph unicode="&#xc0;" horiz-adv-x="1255" d="M8 0l459 1409h324l456 -1409h-342l-86 301h-424l-90 -301h-297zM289 1800q14 34 68.5 46.5t119 1t111.5 -39.5l139 -292h-174zM444 492h330l-125 458q-12 44 -20.5 86t-10.5 62l-2 20h-4q-8 -68 -37 -168z" />
<glyph unicode="&#xc1;" horiz-adv-x="1255" d="M8 0l459 1409h324l456 -1409h-342l-86 301h-424l-90 -301h-297zM444 492h330l-125 458q-12 44 -20.5 86t-10.5 62l-2 20h-4q-8 -68 -37 -168zM512 1516l141 292q46 28 110.5 39.5t118.5 -1t68 -46.5l-262 -284h-176z" />
<glyph unicode="&#xc2;" horiz-adv-x="1255" d="M8 0l459 1409h324l456 -1409h-342l-86 301h-424l-90 -301h-297zM322 1575l215 217q39 39 90 39q53 0 92 -39l213 -217l-86 -78l-219 156l-219 -156zM444 492h330l-125 458q-12 44 -20.5 86t-10.5 62l-2 20h-4q-8 -68 -37 -168z" />
<glyph unicode="&#xc3;" horiz-adv-x="1255" d="M8 0l459 1409h324l456 -1409h-342l-86 301h-424l-90 -301h-297zM297 1649q25 53 63 82.5t101 35.5q41 4 83 -9t71 -30.5t66.5 -31t70.5 -10.5q95 11 129 98l67 -144q-35 -96 -162 -110q-41 -4 -83.5 9t-72.5 30.5t-68.5 30.5t-72.5 10q-90 -7 -127 -103zM444 492h330 l-125 458q-12 44 -20.5 86t-10.5 62l-2 20h-4q-8 -68 -37 -168z" />
<glyph unicode="&#xc4;" horiz-adv-x="1255" d="M8 0l459 1409h324l456 -1409h-342l-86 301h-424l-90 -301h-297zM289 1647q0 52 41 88.5t98 36.5q58 0 99.5 -36.5t41.5 -88.5t-41.5 -87.5t-99.5 -35.5t-98.5 35.5t-40.5 87.5zM444 492h330l-125 458q-12 44 -20.5 86t-10.5 62l-2 20h-4q-8 -68 -37 -168zM688 1647 q0 52 41 88.5t98 36.5q58 0 100 -36.5t42 -88.5t-42 -87.5t-100 -35.5t-98.5 35.5t-40.5 87.5z" />
<glyph unicode="&#xc5;" horiz-adv-x="1255" d="M8 0l459 1409h324l456 -1409h-342l-86 301h-424l-90 -301h-297zM444 492h330l-125 458q-12 44 -20.5 86t-10.5 62l-2 20h-4q-8 -68 -37 -168zM446 1683q0 75 53.5 128t127.5 53q75 0 128.5 -53t53.5 -128t-53.5 -127.5t-128.5 -52.5q-74 0 -127.5 52.5t-53.5 127.5z M543 1683q0 -35 25 -59.5t59 -24.5q35 0 60.5 24.5t25.5 59.5t-25.5 59.5t-60.5 24.5q-34 0 -59 -24.5t-25 -59.5z" />
<glyph unicode="&#xc6;" horiz-adv-x="1552" d="M-20 0l589 1409h787v-223h-426l86 -359h340v-217h-293l92 -387h344v-223h-618l-60 301h-426l-116 -301h-299zM471 496h328l-88 479q-5 31 -9 66t-5 54l-1 19h-4q-14 -67 -41 -139z" />
<glyph unicode="&#xc7;" horiz-adv-x="1005" d="M90 705q0 114 21 219.5t66 198t109.5 160.5t157 107.5t203.5 39.5q192 0 305 -82l-67 -201q-67 43 -166 43q-63 0 -113 -27.5t-82 -72.5t-53 -108.5t-30 -131t-9 -143.5q0 -94 16 -176t49 -150.5t89.5 -108t130.5 -39.5q55 0 90 10.5t72 32.5l75 -213q-109 -83 -309 -83 q-111 0 -203.5 39t-157 106.5t-108.5 160t-65 198t-21 221.5zM272 -420l56 101q136 -13 224.5 5.5t88.5 57.5q0 37 -54.5 48.5t-191.5 2.5l54 88q146 13 236 -1t125.5 -47.5t35.5 -88.5q0 -103 -154.5 -147t-419.5 -19z" />
<glyph unicode="&#xc8;" horiz-adv-x="937" d="M133 0v1409h721v-223h-387v-359h338v-217h-338v-387h387v-223h-721zM193 1800q14 34 68.5 46.5t119 1t111.5 -39.5l139 -292h-174z" />
<glyph unicode="&#xc9;" horiz-adv-x="937" d="M133 0v1409h721v-223h-387v-359h338v-217h-338v-387h387v-223h-721zM354 1516l140 292q47 28 111.5 39.5t119 -1t68.5 -46.5l-265 -284h-174z" />
<glyph unicode="&#xca;" horiz-adv-x="937" d="M133 0v1409h721v-223h-387v-359h338v-217h-338v-387h387v-223h-721zM172 1575l215 217q39 39 90 39q53 0 92 -39l215 -217l-88 -78l-217 156l-219 -156z" />
<glyph unicode="&#xcb;" horiz-adv-x="937" d="M135 0v1409h719v-223h-387v-359h338v-217h-338v-387h387v-223h-719zM150 1647q0 52 41 88.5t98 36.5q58 0 99.5 -36.5t41.5 -88.5t-41.5 -87.5t-99.5 -35.5t-98.5 35.5t-40.5 87.5zM547 1647q0 52 41 88.5t100 36.5q58 0 99.5 -36.5t41.5 -88.5t-41.5 -87.5t-99.5 -35.5 q-59 0 -100 35.5t-41 87.5z" />
<glyph unicode="&#xcc;" horiz-adv-x="606" d="M10 1800q14 34 68.5 46.5t119 1t111.5 -39.5l140 -292h-175zM135 0v1409h334v-1409h-334z" />
<glyph unicode="&#xcd;" horiz-adv-x="606" d="M137 0v1409h332v-1409h-332zM158 1516l139 292q47 28 111.5 39.5t119 -1t68.5 -46.5l-264 -284h-174z" />
<glyph unicode="&#xce;" horiz-adv-x="606" d="M-2 1575l215 217q37 37 90 37t90 -37l215 -217l-86 -78l-219 156l-219 -156zM137 0v1409h332v-1409h-332z" />
<glyph unicode="&#xcf;" horiz-adv-x="606" d="M-37 1647q0 52 41 88.5t98 36.5q58 0 100 -36.5t42 -88.5t-42 -87.5t-100 -35.5t-98.5 35.5t-40.5 87.5zM135 0v1409h332v-1409h-332zM362 1647q0 52 41.5 88.5t98.5 36.5q58 0 99.5 -36.5t41.5 -88.5t-41.5 -87.5t-99.5 -35.5t-99 35.5t-41 87.5z" />
<glyph unicode="&#xd0;" horiz-adv-x="1312" d="M68 655v193h102v500q178 82 412 82q168 0 293 -54t200 -152.5t111.5 -226.5t36.5 -286q0 -124 -21 -231t-68.5 -200t-119 -159t-178 -103.5t-240.5 -37.5q-277 0 -426 81v594h-102zM494 219q44 -14 102 -14q155 0 225 118.5t70 393.5q0 261 -72 380.5t-229 119.5 q-47 0 -96 -17v-352h163v-193h-163v-436z" />
<glyph unicode="&#xd1;" horiz-adv-x="1339" d="M133 0v1409h293l432 -723q19 -32 37 -65.5t27 -51.5l8 -18h4q-8 67 -8 141v717h280v-1409h-256l-469 791q-19 33 -37.5 69.5t-27.5 57.5l-8 20h-5q9 -76 9 -154v-784h-279zM338 1649q47 108 164 118q52 5 103.5 -17.5t98.5 -45t89 -18.5q50 6 80 31t49 67l67 -144 q-38 -96 -162 -110q-41 -4 -84 9t-72.5 30.5t-68 30.5t-72.5 10q-90 -7 -127 -103z" />
<glyph unicode="&#xd2;" horiz-adv-x="1282" d="M90 705q0 122 19.5 228t62 198.5t105.5 158t156 103t208 37.5t208 -37.5t156 -103t105.5 -158t62 -198.5t19.5 -228q0 -154 -31.5 -282.5t-96 -229t-172.5 -157t-251 -56.5t-251 56.5t-172.5 157t-96 229t-31.5 282.5zM344 1800q14 34 68 46.5t118.5 1t110.5 -39.5 l141 -292h-176zM428 717q0 -101 8.5 -181t30 -155t66 -116.5t108.5 -41.5q53 0 92 29t62 74.5t36.5 113t18 132.5t4.5 145q0 493 -213 493t-213 -493z" />
<glyph unicode="&#xd3;" horiz-adv-x="1282" d="M90 705q0 122 19.5 228t62 198.5t105.5 158t156 103t208 37.5t208 -37.5t156 -103t105.5 -158t62 -198.5t19.5 -228q0 -154 -31.5 -282.5t-96 -229t-172.5 -157t-251 -56.5t-251 56.5t-172.5 157t-96 229t-31.5 282.5zM428 717q0 -101 8.5 -181t30 -155t66 -116.5 t108.5 -41.5q53 0 92 29t62 74.5t36.5 113t18 132.5t4.5 145q0 493 -213 493t-213 -493zM496 1516l139 292q47 28 111.5 39.5t118.5 -1t69 -46.5l-264 -284h-174z" />
<glyph unicode="&#xd4;" horiz-adv-x="1282" d="M90 705q0 122 19.5 228t62 198.5t105.5 158t156 103t208 37.5t208 -37.5t156 -103t105.5 -158t62 -198.5t19.5 -228q0 -154 -31.5 -282.5t-96 -229t-172.5 -157t-251 -56.5t-251 56.5t-172.5 157t-96 229t-31.5 282.5zM336 1575l215 217q39 39 90 39q53 0 92 -39 l215 -217l-88 -78l-217 156l-219 -156zM428 717q0 -101 8.5 -181t30 -155t66 -116.5t108.5 -41.5q53 0 92 29t62 74.5t36.5 113t18 132.5t4.5 145q0 493 -213 493t-213 -493z" />
<glyph unicode="&#xd5;" horiz-adv-x="1282" d="M90 705q0 122 19.5 228t62 198.5t105.5 158t156 103t208 37.5t208 -37.5t156 -103t105.5 -158t62 -198.5t19.5 -228q0 -154 -31.5 -282.5t-96 -229t-172.5 -157t-251 -56.5t-251 56.5t-172.5 157t-96 229t-31.5 282.5zM315 1649q47 107 164 118q52 5 103.5 -17.5 t98.5 -45t89 -18.5q95 11 129 98l68 -144q-35 -96 -162 -110q-41 -4 -83.5 9t-72.5 30.5t-68.5 30.5t-72.5 10q-90 -7 -127 -103zM428 717q0 -101 8.5 -181t30 -155t66 -116.5t108.5 -41.5q53 0 92 29t62 74.5t36.5 113t18 132.5t4.5 145q0 493 -213 493t-213 -493z" />
<glyph unicode="&#xd6;" horiz-adv-x="1282" d="M90 705q0 122 19.5 228t62 198.5t105.5 158t156 103t208 37.5t208 -37.5t156 -103t105.5 -158t62 -198.5t19.5 -228q0 -154 -31.5 -282.5t-96 -229t-172.5 -157t-251 -56.5t-251 56.5t-172.5 157t-96 229t-31.5 282.5zM301 1647q0 52 41 88.5t100 36.5q58 0 100 -36.5 t42 -88.5t-42 -87.5t-100 -35.5q-59 0 -100 35.5t-41 87.5zM428 717q0 -101 8.5 -181t30 -155t66 -116.5t108.5 -41.5q53 0 92 29t62 74.5t36.5 113t18 132.5t4.5 145q0 493 -213 493t-213 -493zM700 1647q0 52 41.5 88.5t98.5 36.5q59 0 100 -36.5t41 -88.5t-41 -87.5 t-100 -35.5q-58 0 -99 35.5t-41 87.5z" />
<glyph unicode="&#xd7;" d="M152 985l139 137l287 -305l286 305l137 -137l-288 -307l291 -307l-140 -138l-286 306l-287 -303l-137 135l286 307z" />
<glyph unicode="&#xd8;" horiz-adv-x="1286" d="M92 705q0 122 19.5 228t62.5 198.5t106.5 158t156.5 103t208 37.5q189 0 320 -109l108 172l90 -57l-121 -189q152 -194 152 -542q0 -122 -19 -228.5t-61.5 -198.5t-106 -157.5t-156 -103t-206.5 -37.5q-205 0 -334 116l-114 -178l-91 57l127 199q-141 195 -141 531z M408 717q0 -137 30 -223l383 602q-60 137 -176 137q-237 0 -237 -516zM465 340q57 -139 180 -139q234 0 234 516q0 133 -31 225z" />
<glyph unicode="&#xd9;" horiz-adv-x="1245" d="M133 416v993h334v-991q0 -91 47.5 -140t122.5 -49t121.5 49.5t46.5 141.5v989h307v-993q0 -199 -137 -319t-352 -120q-214 0 -352 120t-138 319zM350 1800q14 34 68.5 46.5t119 1t111.5 -39.5l139 -292h-174z" />
<glyph unicode="&#xda;" horiz-adv-x="1245" d="M133 416v993h334v-991q0 -91 47.5 -140t122.5 -49t121.5 49.5t46.5 141.5v989h307v-993q0 -199 -137 -319t-352 -120q-214 0 -352 120t-138 319zM487 1516l140 292q47 28 111.5 39.5t119 -1t68.5 -46.5l-264 -284h-175z" />
<glyph unicode="&#xdb;" horiz-adv-x="1245" d="M133 416v993h334v-991q0 -91 47.5 -140t122.5 -49t121.5 49.5t46.5 141.5v989h307v-993q0 -199 -137 -319t-352 -120q-214 0 -352 120t-138 319zM328 1575l215 217q39 39 90 39q53 0 92 -39l215 -217l-88 -78l-217 156l-219 -156z" />
<glyph unicode="&#xdc;" horiz-adv-x="1245" d="M133 416v993h334v-991q0 -91 47.5 -140t122.5 -49t121.5 49.5t46.5 141.5v989h307v-993q0 -199 -137 -319t-352 -120q-214 0 -352 120t-138 319zM297 1647q0 52 41 88.5t98 36.5q58 0 100 -36.5t42 -88.5t-42 -87.5t-100 -35.5t-98.5 35.5t-40.5 87.5zM696 1647 q0 52 41.5 88.5t98.5 36.5q58 0 99.5 -36.5t41.5 -88.5t-41.5 -87.5t-99.5 -35.5t-99 35.5t-41 87.5z" />
<glyph unicode="&#xdd;" horiz-adv-x="1087" d="M4 1409h354l201 -532h4l213 532h309l-376 -817v-592h-332v592zM434 1516l141 292q46 28 110.5 39.5t118.5 -1t68 -46.5l-262 -284h-176z" />
<glyph unicode="&#xde;" horiz-adv-x="1177" d="M133 0v1409h326v-229q61 14 114 14q138 0 241 -34t164.5 -95.5t91.5 -142.5t30 -181t-34 -182t-103.5 -144.5t-186 -94.5t-270.5 -25l-47 2v-297h-326zM459 494l37 -2q288 -17 288 247q0 130 -60 198.5t-173 68.5q-39 0 -92 -11v-501z" />
<glyph unicode="&#xdf;" horiz-adv-x="1232" d="M125 0v1036q0 125 29.5 230t87.5 186.5t153 127.5t217 46q146 0 254.5 -68.5t162.5 -179t54 -245.5q0 -108 -24 -185q-88 -15 -130 -52t-42 -105q0 -46 24 -81.5t90 -84.5q83 -61 121.5 -128.5t38.5 -162.5q0 -160 -110.5 -255t-272.5 -95q-154 0 -231 61l51 207 q54 -35 119 -35q55 0 92 34.5t37 90.5q0 50 -25 86t-86 78q-73 49 -109 111t-36 149q0 89 47 152t125 96q12 42 12 108q0 291 -162 291q-88 0 -129 -86t-41 -266v-1061h-317z" />
<glyph unicode="&#xe0;" horiz-adv-x="1105" d="M70 328q0 83 33 148t87.5 107t136.5 72t166.5 46t192.5 26v51q0 82 -49.5 115t-144.5 33q-139 0 -287 -68l-70 182q199 84 416 84q97 0 173.5 -21.5t136.5 -67.5t92 -125.5t32 -188.5v-660q-152 -81 -432 -81q-239 0 -361 88t-122 260zM274 1503q21 51 125 51.5 t172 -43.5l142 -294h-176zM369 340q0 -184 200 -184q71 0 117 22v402q-78 -7 -132 -20.5t-98 -40t-65.5 -71t-21.5 -108.5z" />
<glyph unicode="&#xe1;" horiz-adv-x="1105" d="M70 328q0 83 33 148t87.5 107t136.5 72t166.5 46t192.5 26v51q0 82 -49.5 115t-144.5 33q-139 0 -287 -68l-70 182q199 84 416 84q97 0 173.5 -21.5t136.5 -67.5t92 -125.5t32 -188.5v-660q-152 -81 -432 -81q-239 0 -361 88t-122 260zM369 340q0 -184 200 -184 q71 0 117 22v402q-78 -7 -132 -20.5t-98 -40t-65.5 -71t-21.5 -108.5zM459 1217l139 294q70 44 173 43.5t126 -51.5l-264 -286h-174z" />
<glyph unicode="&#xe2;" horiz-adv-x="1105" d="M70 328q0 83 33 148t87.5 107t136.5 72t166.5 46t192.5 26v51q0 82 -49.5 115t-144.5 33q-139 0 -287 -68l-70 182q199 84 416 84q97 0 173.5 -21.5t136.5 -67.5t92 -125.5t32 -188.5v-660q-152 -81 -432 -81q-239 0 -361 88t-122 260zM258 1278l215 217q37 37 90 37 q55 0 92 -37l215 -217l-88 -80l-217 156l-219 -156zM369 340q0 -184 200 -184q71 0 117 22v402q-78 -7 -132 -20.5t-98 -40t-65.5 -71t-21.5 -108.5z" />
<glyph unicode="&#xe3;" horiz-adv-x="1105" d="M70 328q0 83 33 148t87.5 107t136.5 72t166.5 46t192.5 26v51q0 82 -49.5 115t-144.5 33q-139 0 -287 -68l-70 182q199 84 416 84q97 0 173.5 -21.5t136.5 -67.5t92 -125.5t32 -188.5v-660q-152 -81 -432 -81q-239 0 -361 88t-122 260zM229 1352q53 108 164 118 q41 4 83 -9t71 -30.5t66.5 -31t70.5 -10.5q95 10 129 98l68 -144q-35 -96 -162 -110q-41 -4 -83.5 9t-72.5 30.5t-68.5 30.5t-72.5 10q-84 -7 -127 -103zM369 340q0 -184 200 -184q71 0 117 22v402q-78 -7 -132 -20.5t-98 -40t-65.5 -71t-21.5 -108.5z" />
<glyph unicode="&#xe4;" horiz-adv-x="1105" d="M70 328q0 83 33 148t87.5 107t136.5 72t166.5 46t192.5 26v51q0 82 -49.5 115t-144.5 33q-139 0 -287 -68l-70 182q199 84 416 84q97 0 173.5 -21.5t136.5 -67.5t92 -125.5t32 -188.5v-660q-152 -81 -432 -81q-239 0 -361 88t-122 260zM229 1356q0 52 41.5 88.5 t98.5 36.5q59 0 100 -36.5t41 -88.5t-41 -87.5t-100 -35.5q-58 0 -99 35.5t-41 87.5zM369 340q0 -184 200 -184q71 0 117 22v402q-78 -7 -132 -20.5t-98 -40t-65.5 -71t-21.5 -108.5zM629 1356q0 52 41 88.5t98 36.5q58 0 99.5 -36.5t41.5 -88.5t-41.5 -87.5t-99.5 -35.5 t-98.5 35.5t-40.5 87.5z" />
<glyph unicode="&#xe5;" horiz-adv-x="1105" d="M70 328q0 83 33 148t87.5 107t136.5 72t166.5 46t192.5 26v51q0 82 -49.5 115t-144.5 33q-139 0 -287 -68l-70 182q199 84 416 84q97 0 173.5 -21.5t136.5 -67.5t92 -125.5t32 -188.5v-660q-152 -81 -432 -81q-239 0 -361 88t-122 260zM369 340q0 -184 200 -184 q71 0 117 22v402q-78 -7 -132 -20.5t-98 -40t-65.5 -71t-21.5 -108.5zM387 1386q0 75 52.5 128t127.5 53t128 -53t53 -128t-53 -127.5t-128 -52.5t-127.5 52.5t-52.5 127.5zM483 1386q0 -35 24.5 -59t59.5 -24t59.5 24t24.5 59t-24.5 59.5t-59.5 24.5t-59.5 -24.5 t-24.5 -59.5z" />
<glyph unicode="&#xe6;" horiz-adv-x="1697" d="M70 326q0 100 46.5 173.5t133.5 118.5t189.5 70.5t236.5 38.5v51q0 150 -195 150q-136 0 -280 -68l-68 180q177 84 408 84q100 0 178.5 -37.5t118.5 -113.5q53 71 138.5 111t176.5 40q236 0 354 -154t109 -438l-653 -92q24 -243 260 -243q172 0 280 55l74 -193 q-154 -79 -399 -79q-216 0 -338 163q-90 -163 -336 -163q-210 0 -322 89t-112 257zM356 336q0 -178 164 -178q69 0 111.5 41.5t42.5 111.5v267q-61 -6 -106 -15.5t-87 -27.5t-68 -43.5t-41.5 -64.5t-15.5 -91zM942 600l377 55q-1 148 -48 214.5t-136 66.5q-92 0 -144 -85 t-49 -251z" />
<glyph unicode="&#xe7;" horiz-adv-x="860" d="M82 555q0 136 36 245.5t98.5 179.5t144 107t174.5 37q174 0 270 -80l-66 -176q-54 43 -131 43q-205 0 -205 -352q0 -167 53.5 -259.5t149.5 -92.5q82 0 133 45l68 -193q-83 -79 -270 -79q-202 0 -328.5 152t-126.5 423zM156 -420l57 101q136 -13 224.5 5.5t88.5 57.5 q0 37 -54 48.5t-191 2.5l53 88q215 19 305 -17t90 -120q0 -104 -153.5 -147.5t-419.5 -18.5z" />
<glyph unicode="&#xe8;" horiz-adv-x="1128" d="M82 555q0 262 131.5 415.5t366.5 153.5q238 0 358 -153.5t109 -435.5l-662 -95q17 -123 81.5 -182t184.5 -59q175 0 287 59l72 -199q-158 -79 -396 -79q-251 0 -391.5 154.5t-140.5 420.5zM268 1503q21 51 125 51.5t172 -43.5l142 -294h-177zM365 596l385 57 q0 283 -183 283q-101 0 -155 -87t-47 -253z" />
<glyph unicode="&#xe9;" horiz-adv-x="1128" d="M82 555q0 262 131.5 415.5t366.5 153.5q238 0 358 -153.5t109 -435.5l-662 -95q17 -123 81.5 -182t184.5 -59q175 0 287 59l72 -199q-158 -79 -396 -79q-251 0 -391.5 154.5t-140.5 420.5zM365 596l385 57q0 283 -183 283q-101 0 -155 -87t-47 -253zM465 1217l139 294 q70 44 173 43.5t126 -51.5l-264 -286h-174z" />
<glyph unicode="&#xea;" horiz-adv-x="1128" d="M82 555q0 262 131.5 415.5t366.5 153.5q238 0 358 -153.5t109 -435.5l-662 -95q17 -123 81.5 -182t184.5 -59q175 0 287 59l72 -199q-158 -79 -396 -79q-251 0 -391.5 154.5t-140.5 420.5zM268 1278l215 217q37 37 90 37q56 0 93 -37l215 -217l-86 -80l-220 156 l-219 -156zM365 596l385 57q0 283 -183 283q-101 0 -155 -87t-47 -253z" />
<glyph unicode="&#xeb;" horiz-adv-x="1128" d="M82 555q0 262 131.5 415.5t366.5 153.5q238 0 358 -153.5t109 -435.5l-662 -95q17 -123 81.5 -182t184.5 -59q175 0 287 59l72 -199q-158 -79 -396 -79q-251 0 -391.5 154.5t-140.5 420.5zM240 1356q0 52 41 88.5t98 36.5q58 0 99.5 -36.5t41.5 -88.5t-41.5 -87.5 t-99.5 -35.5t-98.5 35.5t-40.5 87.5zM365 596l385 57q0 283 -183 283q-101 0 -155 -87t-47 -253zM637 1356q0 52 41 88.5t98 36.5q58 0 100 -36.5t42 -88.5t-42 -87.5t-100 -35.5t-98.5 35.5t-40.5 87.5z" />
<glyph unicode="&#xec;" horiz-adv-x="573" d="M-6 1503q21 51 125 51.5t174 -43.5l139 -294h-174zM127 0v1104h319v-1104h-319z" />
<glyph unicode="&#xed;" horiz-adv-x="573" d="M127 0v1104h319v-1104h-319zM139 1217l140 294q70 44 174 43.5t125 -51.5l-265 -286h-174z" />
<glyph unicode="&#xee;" horiz-adv-x="573" d="M-18 1278l213 217q37 37 92 37q53 0 90 -37l215 -217l-86 -80l-219 156l-219 -156zM127 0v1104h319v-1104h-319z" />
<glyph unicode="&#xef;" horiz-adv-x="573" d="M-53 1356q0 52 41 88.5t98 36.5q58 0 99.5 -36.5t41.5 -88.5t-41.5 -87.5t-99.5 -35.5t-98.5 35.5t-40.5 87.5zM127 0v1104h319v-1104h-319zM344 1356q0 52 41 88.5t100 36.5q57 0 98.5 -36.5t41.5 -88.5t-41 -87.5t-99 -35.5q-59 0 -100 35.5t-41 87.5z" />
<glyph unicode="&#xf0;" horiz-adv-x="1150" d="M82 547q0 158 52 285.5t157.5 205.5t247.5 78q57 0 100 -12q-52 126 -107 213l-186 -60q-36 70 -82 119l178 58q-44 57 -100 110l270 86q4 -3 14 -13t13.5 -13t11.5 -11t12 -12.5t11.5 -12t12.5 -13.5t11.5 -14t12.5 -17l166 53q52 -60 86 -119l-166 -53 q264 -415 264 -846q0 -265 -127 -423.5t-359 -158.5q-229 0 -361 156.5t-132 413.5zM399 557q0 -176 40.5 -267t138.5 -91q92 0 128.5 93t36.5 271q0 92 -16 193.5t-39 161.5q-51 14 -90 14q-106 0 -152.5 -90t-46.5 -285z" />
<glyph unicode="&#xf1;" horiz-adv-x="1179" d="M121 0v1042q186 82 465 82q239 0 356 -85t117 -261v-778h-320v776q0 150 -164 150q-64 0 -135 -23v-903h-319zM260 1352q50 108 164 118q52 5 103.5 -17.5t98.5 -45t89 -18.5q95 11 129 98l67 -144q-35 -96 -161 -110q-41 -4 -83.5 9t-72.5 30.5t-68.5 30.5t-72.5 10 q-90 -7 -127 -103z" />
<glyph unicode="&#xf2;" horiz-adv-x="1138" d="M82 553q0 167 54 294.5t165 202t266 74.5q157 0 269 -74.5t166.5 -202t54.5 -294.5t-54.5 -295t-166 -203t-267.5 -75q-232 0 -359.5 158.5t-127.5 414.5zM258 1503q21 51 125 51.5t174 -43.5l139 -294h-174zM399 557q0 -81 7.5 -141.5t25.5 -112t52.5 -79t84.5 -27.5 q51 0 85.5 27t52.5 79.5t25 112.5t7 141t-7 142t-24.5 115t-52.5 83t-86 29t-86 -29t-52.5 -83t-24.5 -115t-7 -142z" />
<glyph unicode="&#xf3;" horiz-adv-x="1138" d="M82 553q0 167 54 294.5t165 202t266 74.5q157 0 269 -74.5t166.5 -202t54.5 -294.5t-54.5 -295t-166 -203t-267.5 -75q-232 0 -359.5 158.5t-127.5 414.5zM399 557q0 -81 7.5 -141.5t25.5 -112t52.5 -79t84.5 -27.5q51 0 85.5 27t52.5 79.5t25 112.5t7 141t-7 142 t-24.5 115t-52.5 83t-86 29t-86 -29t-52.5 -83t-24.5 -115t-7 -142zM453 1217l139 294q70 44 173 43.5t126 -51.5l-264 -286h-174z" />
<glyph unicode="&#xf4;" horiz-adv-x="1138" d="M82 553q0 167 54 294.5t165 202t266 74.5q157 0 269 -74.5t166.5 -202t54.5 -294.5t-54.5 -295t-166 -203t-267.5 -75q-232 0 -359.5 158.5t-127.5 414.5zM262 1278l215 217q37 37 90 37q55 0 92 -37l215 -217l-86 -80l-219 156l-219 -156zM399 557q0 -81 7.5 -141.5 t25.5 -112t52.5 -79t84.5 -27.5q51 0 85.5 27t52.5 79.5t25 112.5t7 141t-7 142t-24.5 115t-52.5 83t-86 29t-86 -29t-52.5 -83t-24.5 -115t-7 -142z" />
<glyph unicode="&#xf5;" horiz-adv-x="1138" d="M82 553q0 167 54 294.5t165 202t266 74.5q157 0 269 -74.5t166.5 -202t54.5 -294.5t-54.5 -295t-166 -203t-267.5 -75q-232 0 -359.5 158.5t-127.5 414.5zM242 1352q50 108 164 118q41 4 82.5 -9t70.5 -30.5t66 -31t71 -10.5q50 6 80 31t49 67l68 -144q-38 -96 -162 -110 q-41 -4 -84 9t-72.5 30.5t-68 30.5t-72.5 10q-90 -7 -127 -103zM399 557q0 -81 7.5 -141.5t25.5 -112t52.5 -79t84.5 -27.5q51 0 85.5 27t52.5 79.5t25 112.5t7 141t-7 142t-24.5 115t-52.5 83t-86 29t-86 -29t-52.5 -83t-24.5 -115t-7 -142z" />
<glyph unicode="&#xf6;" horiz-adv-x="1138" d="M82 553q0 167 54 294.5t165 202t266 74.5q157 0 269 -74.5t166.5 -202t54.5 -294.5t-54.5 -295t-166 -203t-267.5 -75q-232 0 -359.5 158.5t-127.5 414.5zM229 1356q0 52 40.5 88.5t99.5 36.5q58 0 99.5 -36.5t41.5 -88.5t-41.5 -87.5t-99.5 -35.5q-59 0 -99.5 35.5 t-40.5 87.5zM399 557q0 -81 7.5 -141.5t25.5 -112t52.5 -79t84.5 -27.5q51 0 85.5 27t52.5 79.5t25 112.5t7 141t-7 142t-24.5 115t-52.5 83t-86 29t-86 -29t-52.5 -83t-24.5 -115t-7 -142zM627 1356q0 52 41 88.5t100 36.5q58 0 99.5 -36.5t41.5 -88.5t-41.5 -87.5 t-99.5 -35.5q-59 0 -100 35.5t-41 87.5z" />
<glyph unicode="&#xf7;" d="M162 600v154h831v-154h-831zM444 346q0 55 39 94t95 39t94.5 -38.5t38.5 -94.5t-39 -95.5t-94 -39.5t-94.5 39.5t-39.5 95.5zM444 1010q0 55 39 94t95 39t94.5 -38.5t38.5 -94.5t-38.5 -94.5t-94.5 -38.5t-95 39t-39 94z" />
<glyph unicode="&#xf8;" horiz-adv-x="1146" d="M82 553q0 167 56 294.5t168 202t267 74.5q141 0 242 -63l94 162l70 -41l-94 -166q88 -76 134 -195t46 -268q0 -167 -55.5 -295t-168 -203t-268.5 -75q-140 0 -249 67l-97 -166l-69 41l98 172q-84 76 -129 195t-45 264zM375 559q0 -137 28 -209l304 524q-51 74 -134 74 q-45 0 -79.5 -21.5t-56.5 -57.5t-36.5 -87t-20 -105.5t-5.5 -117.5zM440 248q49 -74 133 -74q56 0 96.5 31t62.5 86t32 120.5t10 145.5q0 133 -31 215z" />
<glyph unicode="&#xf9;" horiz-adv-x="1165" d="M121 362v742h319v-764q0 -65 37.5 -105t114.5 -40q82 0 133 26v883h319v-1038q-172 -86 -460 -86q-235 0 -349 92t-114 290zM289 1503q21 51 125 51.5t174 -43.5l139 -294h-174z" />
<glyph unicode="&#xfa;" horiz-adv-x="1165" d="M121 362v742h319v-764q0 -65 37.5 -105t114.5 -40q82 0 133 26v883h319v-1038q-172 -86 -460 -86q-235 0 -349 92t-114 290zM467 1217l139 294q70 44 174 43.5t125 -51.5l-264 -286h-174z" />
<glyph unicode="&#xfb;" horiz-adv-x="1165" d="M121 362v742h319v-764q0 -65 37.5 -105t114.5 -40q82 0 133 26v883h319v-1038q-172 -86 -460 -86q-235 0 -349 92t-114 290zM279 1278l213 217q37 37 90 37q55 0 92 -37l215 -217l-86 -80l-219 156l-219 -156z" />
<glyph unicode="&#xfc;" horiz-adv-x="1165" d="M121 362v742h319v-764q0 -65 37.5 -105t114.5 -40q82 0 133 26v883h319v-1038q-172 -86 -460 -86q-235 0 -349 92t-114 290zM242 1356q0 52 41 88.5t100 36.5q58 0 99.5 -36.5t41.5 -88.5t-41.5 -87.5t-99.5 -35.5q-59 0 -100 35.5t-41 87.5zM641 1356q0 52 41 88.5 t98 36.5q59 0 100.5 -36.5t41.5 -88.5t-41.5 -87.5t-100.5 -35.5q-58 0 -98.5 35.5t-40.5 87.5z" />
<glyph unicode="&#xfd;" horiz-adv-x="1069" d="M29 1104h338l182 -760h2l192 760h299l-497 -1544h-338l186 440zM428 1217l139 294q70 44 174 43.5t125 -51.5l-264 -286h-174z" />
<glyph unicode="&#xfe;" horiz-adv-x="1169" d="M121 -440v2048h317v-527q96 39 189 39q205 0 332.5 -141t127.5 -397q0 -137 -38.5 -250t-105.5 -188t-157.5 -115.5t-195.5 -40.5q-88 0 -150 18v-446h-319zM440 188q50 -12 84 -12q130 0 189 102t59 279q0 193 -54.5 284t-176.5 91q-57 0 -101 -21v-723z" />
<glyph unicode="&#xff;" horiz-adv-x="1069" d="M29 1104h338l182 -760h2l192 760h299l-497 -1544h-338l186 440zM213 1356q0 52 41 88.5t98 36.5q58 0 100 -36.5t42 -88.5t-42 -87.5t-100 -35.5t-98.5 35.5t-40.5 87.5zM612 1356q0 52 41.5 88.5t98.5 36.5q58 0 99.5 -36.5t41.5 -88.5t-41.5 -87.5t-99.5 -35.5 t-99 35.5t-41 87.5z" />
<glyph unicode="&#x152;" horiz-adv-x="1576" d="M90 705q0 224 63 384.5t195.5 250.5t327.5 90q77 0 174 -21h643v-223h-385v-359h338v-217h-338v-387h385v-223h-645q-70 -20 -170 -20q-195 0 -328 90.5t-196.5 251t-63.5 383.5zM428 711q0 -508 266 -508q67 0 105 10v993q-47 15 -105 15q-266 0 -266 -510z" />
<glyph unicode="&#x153;" horiz-adv-x="1751" d="M82 553q0 166 54.5 294t164 202.5t260.5 74.5q205 0 316 -174q52 83 139.5 128.5t187.5 45.5q237 0 355 -154.5t110 -443.5l-653 -82q10 -75 34 -125.5t61 -76t75.5 -35.5t89.5 -10q171 0 280 59l74 -197q-77 -40 -163 -59.5t-234 -19.5q-119 0 -209.5 48t-142.5 140 q-108 -188 -320 -188q-153 0 -262.5 75t-163 203t-53.5 295zM389 559q0 -75 7 -134t24.5 -114t53 -85.5t87.5 -30.5q44 0 76 21.5t50 54.5t29 83.5t14 96.5t3 106q0 62 -3 109t-13.5 98t-28.5 84t-50 54.5t-77 21.5q-43 0 -75 -21.5t-50.5 -55t-29 -84t-14 -97.5t-3.5 -107z M995 606l377 47q0 145 -48.5 217t-135.5 72q-94 0 -148 -86t-45 -250z" />
<glyph unicode="&#x178;" horiz-adv-x="1087" d="M4 1409h354l201 -532h4l213 532h309l-376 -817v-592h-332v592zM219 1647q0 52 41 88.5t98 36.5q59 0 100.5 -36.5t41.5 -88.5t-41.5 -87.5t-100.5 -35.5q-58 0 -98.5 35.5t-40.5 87.5zM618 1647q0 52 41.5 88.5t98.5 36.5q58 0 99.5 -36.5t41.5 -88.5t-41.5 -87.5 t-99.5 -35.5t-99 35.5t-41 87.5z" />
<glyph unicode="&#x2c6;" horiz-adv-x="507" d="M-51 1278l215 217q37 37 90 37t90 -37l215 -217l-86 -80l-219 156l-219 -156z" />
<glyph unicode="&#x2dc;" horiz-adv-x="507" d="M-72 1352q50 108 164 118q52 5 103.5 -17.5t98.5 -45t89 -18.5q95 11 129 98l68 -144q-35 -96 -162 -110q-41 -4 -83.5 9t-72.5 30.5t-68.5 30.5t-72.5 10q-90 -7 -127 -103z" />
<glyph unicode="&#x2000;" horiz-adv-x="932" />
<glyph unicode="&#x2001;" horiz-adv-x="1864" />
<glyph unicode="&#x2002;" horiz-adv-x="932" />
<glyph unicode="&#x2003;" horiz-adv-x="1864" />
<glyph unicode="&#x2004;" horiz-adv-x="621" />
<glyph unicode="&#x2005;" horiz-adv-x="466" />
<glyph unicode="&#x2006;" horiz-adv-x="310" />
<glyph unicode="&#x2007;" horiz-adv-x="310" />
<glyph unicode="&#x2008;" horiz-adv-x="233" />
<glyph unicode="&#x2009;" horiz-adv-x="372" />
<glyph unicode="&#x200a;" horiz-adv-x="103" />
<glyph unicode="&#x2010;" horiz-adv-x="729" d="M98 569v236h533v-236h-533z" />
<glyph unicode="&#x2011;" horiz-adv-x="729" d="M98 569v236h533v-236h-533z" />
<glyph unicode="&#x2012;" horiz-adv-x="729" d="M98 569v236h533v-236h-533z" />
<glyph unicode="&#x2013;" horiz-adv-x="860" d="M0 592v188h860v-188h-860z" />
<glyph unicode="&#x2014;" horiz-adv-x="1720" d="M0 606v160h1720v-160h-1720z" />
<glyph unicode="&#x2018;" horiz-adv-x="632" d="M92 1018l318 590h161l-182 -590q-63 -94 -176 -94q-105 0 -121 94z" />
<glyph unicode="&#x2019;" horiz-adv-x="632" d="M61 936l183 592q66 94 178 94q102 0 119 -94l-316 -592h-164z" />
<glyph unicode="&#x201a;" horiz-adv-x="632" d="M61 -346l183 590q63 94 178 94q103 0 119 -94l-316 -590h-164z" />
<glyph unicode="&#x201c;" horiz-adv-x="1077" d="M92 1018l318 590h161l-182 -590q-63 -94 -176 -94q-105 0 -121 94zM535 1018l317 590h164l-185 -590q-59 -94 -176 -94q-104 0 -120 94z" />
<glyph unicode="&#x201d;" horiz-adv-x="1077" d="M61 936l183 592q66 94 178 94q102 0 119 -94l-316 -592h-164zM504 936l184 592q66 94 176 94q104 0 121 -94l-317 -592h-164z" />
<glyph unicode="&#x201e;" horiz-adv-x="1077" d="M61 -346l183 590q63 94 178 94q103 0 119 -94l-316 -590h-164zM504 -346l184 590q63 94 176 94q105 0 121 -94l-317 -590h-164z" />
<glyph unicode="&#x2022;" horiz-adv-x="802" d="M111 743q0 120 85 205.5t205 85.5t205.5 -85.5t85.5 -205.5q0 -121 -85.5 -205.5t-205.5 -84.5t-205 84.5t-85 205.5z" />
<glyph unicode="&#x2026;" horiz-adv-x="1902" d="M135 166q0 75 53.5 128.5t128.5 53.5t129 -53.5t54 -128.5t-54 -128.5t-129 -53.5t-128.5 53.5t-53.5 128.5zM770 166q0 75 52.5 128.5t127.5 53.5t129 -53.5t54 -128.5t-54 -128.5t-129 -53.5t-127.5 53.5t-52.5 128.5zM1403 166q0 75 53.5 128.5t128.5 53.5 t128.5 -53.5t53.5 -128.5t-53.5 -128.5t-128.5 -53.5t-128.5 53.5t-53.5 128.5z" />
<glyph unicode="&#x202f;" horiz-adv-x="372" />
<glyph unicode="&#x2039;" horiz-adv-x="673" d="M82 684l305 485l172 -102l-240 -383l240 -383l-174 -100z" />
<glyph unicode="&#x203a;" horiz-adv-x="673" d="M115 301l239 383l-239 383l174 102l303 -485l-303 -483z" />
<glyph unicode="&#x205f;" horiz-adv-x="466" />
<glyph unicode="&#x2122;" horiz-adv-x="1599" d="M76 1294v115h530v-115h-188v-585h-152v585h-190zM618 709l103 700h190l148 -526l139 526h193l102 -700h-147l-64 532l-158 -532h-137l-160 530l-59 -530h-150z" />
<glyph unicode="&#x25fc;" horiz-adv-x="1105" d="M0 0v1106h1106v-1106h-1106z" />
<glyph unicode="&#xfb01;" horiz-adv-x="1241" d="M68 897v207h118v113q0 206 133 310t357 79v-203q-84 3 -127 -33t-43 -127v-139h170v-207h-170v-897h-320v897h-118zM782 1421q0 60 50 104t120 44q71 0 121.5 -44t50.5 -104q0 -62 -50 -105.5t-122 -43.5q-70 0 -120 43.5t-50 105.5zM797 0v1104h319v-1104h-319z" />
<glyph unicode="&#xfb02;" horiz-adv-x="1251" d="M68 897v207h118v113q0 206 133 310t357 79v-203q-84 3 -127 -33t-43 -127v-139h170v-207h-170v-897h-320v897h-118zM805 0v1608h319v-1608h-319z" />
</font>
</defs>
</svg>
